<svg xml:space="preserve" xmlns="http://www.w3.org/2000/svg" viewBox="0 0 24 24">
   <path
      fill="#1877f2"
      d="M24 12c0 5.99-4.388 10.954-10.125 11.854v-8.386h2.796L17.203 12h-3.328V9.749c0-.95.465-1.874 1.956-1.874h1.513V4.922s-1.374-.235-2.687-.235c-2.74 0-4.532 1.661-4.532 4.669V12H7.078v3.469h3.047v8.385C4.388 22.954 0 17.99 0 12 0 5.373 5.373 0 12 0s12 5.373 12 12z"
   />
   <path
      fill="#fff"
      d="M16.671 15.469 17.203 12h-3.328V9.75c0-.95.465-1.875 1.956-1.875h1.513V4.922s-1.373-.234-2.686-.234c-2.742 0-4.533 1.66-4.533 4.669V12H7.078v3.47h3.047v8.385a12.09 12.09 0 0 0 3.75 0v-8.386z"
   />
</svg>
