<svg xmlns="http://www.w3.org/2000/svg" viewBox="0 0 124 24">
   <path
      fill="#3772FF"
      d="M9.827 24q-3.082 0-5.198-.965-2.117-.996-3.207-2.677-1.09-1.712-1.09-3.922h4.95q0 .871.467 1.619.498.747 1.494 1.214.997.435 2.584.435 1.432 0 2.397-.373t1.463-1.027q.498-.685.498-1.557 0-1.09-.934-1.712-.934-.654-3.02-.84l-1.711-.156q-3.393-.28-5.417-2.117T1.08 7.066q0-2.179 1.027-3.766Q3.166 1.712 5.033.872 6.901 0 9.453 0q2.678 0 4.576.934 1.93.903 2.958 2.584 1.027 1.65 1.027 3.89h-4.98q0-.84-.405-1.525-.405-.716-1.214-1.151-.779-.436-1.961-.436-1.121 0-1.9.373-.746.374-1.12 1.028-.373.622-.373 1.37 0 .964.684 1.68.685.716 2.242.84l1.743.156q2.49.218 4.389 1.09 1.899.84 2.957 2.334 1.09 1.463 1.09 3.58 0 2.18-1.152 3.829-1.12 1.619-3.206 2.521-2.086.903-4.98.903zm27.257-.591V.685h5.105v22.724zm-14.693 0V.685h5.105v22.724zm4.202-9.183V9.743h11.393v4.483zM57.896 24q-3.081 0-5.385-1.058-2.272-1.09-3.766-2.833-1.495-1.774-2.242-3.829-.716-2.054-.716-3.953v-.685q0-2.117.748-4.171.778-2.086 2.303-3.767 1.525-1.68 3.798-2.677Q54.908 0 57.896 0t5.261 1.027q2.273.996 3.798 2.677t2.303 3.767q.779 2.054.779 4.17v.686q0 1.899-.748 3.953-.747 2.055-2.24 3.829-1.495 1.743-3.798 2.833Q60.978 24 57.896 24zm0-4.763q1.619 0 2.895-.56 1.308-.56 2.21-1.556.934-.996 1.401-2.304.467-1.307.467-2.801 0-1.588-.498-2.895-.467-1.339-1.4-2.304-.904-.996-2.18-1.525-1.276-.53-2.895-.53t-2.895.53q-1.276.529-2.21 1.525-.902.965-1.37 2.304-.466 1.307-.466 2.895 0 1.494.467 2.801.467 1.308 1.37 2.304.933.996 2.21 1.556 1.276.56 2.894.56zm20.066 4.327V19.58h5.323q1.432 0 2.148-.747.716-.747.716-2.117t-.716-2.086q-.716-.747-2.148-.747h-5.323v-3.081h5.074q2.366 0 4.202.591 1.837.56 2.895 1.837 1.059 1.276 1.059 3.455v.436q0 2.023-.934 3.486-.934 1.432-2.74 2.21-1.805.747-4.482.747zm-4.358 0V.498h4.98v23.066zm4.358-10.49v-3.05h4.483q1.463 0 2.117-.748.653-.747.653-1.992 0-1.307-.653-2.054-.654-.747-2.117-.747h-4.483V.498h4.172q3.922 0 6.007 1.65 2.117 1.65 2.117 4.7v.467q0 2.117-1.09 3.393-1.058 1.277-2.894 1.837-1.806.53-4.14.53zM92.3 23.41 99.802.685h8.25l7.781 22.724h-5.291l-6.288-19.206 1.618.654h-4.015l1.68-.654-6.132 19.206zm5.697-5.634 1.556-4.234h8.903l1.587 4.234zm20.564 5.634V.685h5.105V23.41z"
   />
</svg>
