<svg xmlns="http://www.w3.org/2000/svg" viewBox="0 0 16 16" class="flex-shrink-0">
   <path
      d="m14.94 13.608-2.764-2.702a6.053 6.053 0 0 0 1.297-3.745 6.082 6.082 0 0 0-1.855-4.378 6.303 6.303 0 0 0-2.053-1.346A6.417 6.417 0 0 0 7.14.97 6.367 6.367 0 0 0 2.66 2.783a6.102 6.102 0 0 0 0 8.756 6.304 6.304 0 0 0 2.054 1.346c.768.311 1.593.47 2.425.468 1.404 0 2.734-.45 3.83-1.269l2.765 2.703a.86.86 0 0 0 .603.244.86.86 0 0 0 .787-.514.816.816 0 0 0-.185-.909ZM3.867 10.361a4.46 4.46 0 0 1 0-6.4 4.607 4.607 0 0 1 1.5-.983 4.69 4.69 0 0 1 1.773-.342 4.69 4.69 0 0 1 1.772.342 4.606 4.606 0 0 1 1.5.983c.432.42.774.918 1.006 1.467.233.55.352 1.138.35 1.733a4.447 4.447 0 0 1-1.355 3.2 4.65 4.65 0 0 1-3.273 1.325 4.656 4.656 0 0 1-3.273-1.325Z"
      fill="#6B7280"
   />
</svg>
